<?xml version="1.0" encoding="utf-8"?>
<?xml-stylesheet type="text/xsl" href="rss1.xsl"?>
<rss version="2.0" xmlns:atom="http://www.w3.org/2005/Atom" xmlns:content="http://purl.org/rss/1.0/modules/content/" xmlns:dc="http://purl.org/dc/elements/1.1/" xmlns:media="http://search.yahoo.com/mrss/">
<channel>
 <title>Getty</title>
 <link>http://www.gettyimg.com/</link>
 <atom:link href="http://www.gettyimg.com/" rel="self" type="application/rss+xml" />

 
                <item>
                <title><![CDATA[【Requests】[REQ AUD] - RichGirl - Unreleased songs]]></title>
                <link><![CDATA[https://sharemania.us/threads/richgirl-unreleased-songs.249378/]]></link>
                <description><![CDATA[<article>
<blockquote class="messageText SelectQuoteContainer ugc baseHtml">
Does anyone remember Rich Harrissons shortlived but very talented girlgroup Rich Girl? <br>
<br>
Back in 2011 they had a lot of songs leak online from their unreleased album... songs like 'Selfish', 'Decsion's and 'Take Over Me'. Does anyone have these in high quality, or could anyone be so kind as to find them?<br>
<br>
<br>
Thanks if so!
<div class="messageTextEndMarker">&nbsp;</div>
</blockquote>
</article>]]></description>
                <author><![CDATA[LibraSecretsPulse]]></author>
                </item>

                
                <item>
                <title><![CDATA[【UPSCALED】Red Velvet - Umpah Umpah [RTX HDR10]]]></title>
                <link><![CDATA[https://sharemania.us/threads/red-velvet-umpah-umpah-rtx-hdr10.249371/]]></link>
                <description><![CDATA[<article>
<blockquote class="messageText SelectQuoteContainer ugc baseHtml">
<span style="font-size: 18px"><span style="color: #ff0080"><b>Reve Festival: Day 2</b></span>. The song is energetic but the lyrics are *skull icon*<br>
<br>
</span>
<div class="bbCodeBlock bbCodeVfcHH HiddenContent">
<div class="attribution type">Hidden Content:</div>
<blockquote>You must either reply or click 'Like' to see the hidden information contained here.</blockquote>
</div><br>
<span style="font-size: 18px">
<div class="bbCodeBlock bbCodeVfcHH HiddenContent">
<div class="attribution type">Hidden Content:</div>
<blockquote>You must reply before you can see the hidden data contained here.</blockquote>
</div></span>
<div class="messageTextEndMarker">&nbsp;</div>
</blockquote>
</article>]]></description>
                <author><![CDATA[ch3v4li3r]]></author>
                </item>

                
                <item>
                <title><![CDATA[【Cinema Center】MOVIE - The Marvels 1080p GPLAY WEB-DL LATINO]]></title>
                <link><![CDATA[https://sharemania.us/threads/the-marvels-1080p-gplay-web-dl-latino.249377/]]></link>
                <description><![CDATA[<article>
<blockquote class="messageText SelectQuoteContainer ugc baseHtml">
<img src="https://prod-ripcut-delivery.disney-plus.net/v1/variant/disney/18BDEBDB3B792A8C41C6A2C392BA2E8EF5D576046CDE7B8C52F8F0707B351DEB/scale?width=1200&amp;amp;aspectRatio=1.78&amp;amp;format=webp" class="bbCodeImage LbImage" alt="[​IMG]" data-url="https://prod-ripcut-delivery.disney-plus.net/v1/variant/disney/18BDEBDB3B792A8C41C6A2C392BA2E8EF5D576046CDE7B8C52F8F0707B351DEB/scale?width=1200&amp;amp;aspectRatio=1.78&amp;amp;format=webp" style=""><br>
<br>
<br>
Media Info:<br>
<br>
<div class="bbCodeBlock bbCodeCode">
<div class="type">Code:</div>
<pre>Video
ID                             : 1
Format                         : AVC
Format/Info                    : Advanced Video Codec
Format profile                 : High@L4
Format settings, CABAC         : Yes
Format settings, RefFrames     : 2 frames
Codec ID                       : V_MPEG4/ISO/AVC
Duration                       : 1 h 44 min
Bit rate                       : 5 021 kb/s
Width                          : 1 920 pixels
Height                         : 1 080 pixels
Display aspect ratio           : 16:9
Frame rate mode                : Constant
Frame rate                     : 24.000 FPS
Color space                    : YUV
Chroma subsampling             : 4:2:0
Bit depth                      : 8 bits
Scan type                      : Progressive
Bits/(Pixel*Frame)             : 0.101
Stream size                    : 3.67 GiB (93%)
Writing library                : x264 core 155 r2901 7d0ff22
Default                        : Yes
Forced                         : No
Color range                    : Limited
Color primaries                : BT.709
Transfer characteristics       : BT.709
Matrix coefficients            : BT.709

Audio
ID                             : 2
Format                         : AC-3
Format/Info                    : Audio Coding 3
Format settings, Endianness    : Big
Codec ID                       : A_AC3
Duration                       : 1 h 44 min
Bit rate mode                  : Constant
Bit rate                       : 384 kb/s
Channel(s)                     : 6 channels
Channel positions              : Front: L C R, Side: L R, LFE
Sampling rate                  : 48.0 kHz
Frame rate                     : 31.250 FPS (1536 SPF)
Bit depth                      : 16 bits
Compression mode               : Lossy
Stream size                    : 287 MiB (7%)
Language                       : Spanish
Service kind                   : Complete Main
Default                        : Yes
Forced                         : No</pre>
</div><br>
<div style="text-align: center">PREVIEW<br>
<img src="https://i.ibb.co/2SwqR4L/The-Marvels-1080p-mkv-thumbs-2024-07-09-16-09-08.png" class="bbCodeImage LbImage" alt="[​IMG]" data-url="https://i.ibb.co/2SwqR4L/The-Marvels-1080p-mkv-thumbs-2024-07-09-16-09-08.png" style=""><br>
<br>
Descarga - MEGA:<br>
<div class="bbCodeBlock bbCodeVfcHH HiddenContent">
<div class="attribution type">Hidden Content:</div>
<blockquote>You must reply before you can see the hidden data contained here.</blockquote>
</div></div>
<div class="messageTextEndMarker">&nbsp;</div>
</blockquote>
</article>]]></description>
                <author><![CDATA[santibg0604]]></author>
                </item>

                
                <item>
                <title><![CDATA[【SD】Das Bo - Türlich, Türlich (Sicher Dicker) (2000, TV-Rip, German Rap)]]></title>
                <link><![CDATA[https://sharemania.us/threads/das-bo-t%C3%BCrlich-t%C3%BCrlich-sicher-dicker-2000-tv-rip-german-rap.249374/]]></link>
                <description><![CDATA[<article>
<blockquote class="messageText SelectQuoteContainer ugc baseHtml">
Das Bo - Türlich, Türlich (Sicher Dicker) (2000, TV-Rip, German Rap)<br>
<br>
<img src="https://images2.imgbox.com/26/39/wo0FxVJa_o.jpg" class="bbCodeImage LbImage" alt="[​IMG]" data-url="https://images2.imgbox.com/26/39/wo0FxVJa_o.jpg" style=""> <br>
<br>
<span data-s9e-mediaembed="youtube" style="display:inline-block;width:100%;max-width:640px"><span style="display:block;overflow:hidden;position:relative;padding-bottom:56.25%"><iframe allowfullscreen="" loading="lazy" scrolling="no" style="background:url(https://i.ytimg.com/vi/n-AUUWKgCX4/hqdefault.jpg) 50% 50% / cover;border:0;height:100%;left:0;position:absolute;width:100%" src="https://www.youtube.com/embed/n-AUUWKgCX4"></iframe></span></span><br>
<br>
<div class="bbCodeBlock bbCodeVfcHH HiddenContent">
<div class="attribution type">Hidden Content:</div>
<blockquote>You must reply before you can see the hidden data contained here.</blockquote>
</div>Greets, 3rsin.
<div class="messageTextEndMarker">&nbsp;</div>
</blockquote>
</article>]]></description>
                <author><![CDATA[fritching]]></author>
                </item>

                
                <item>
                <title><![CDATA[【UPSCALED】(G)-IDLE - Queencard [RTX HDR10]]]></title>
                <link><![CDATA[https://sharemania.us/threads/g-idle-queencard-rtx-hdr10.249376/]]></link>
                <description><![CDATA[<article>
<blockquote class="messageText SelectQuoteContainer ugc baseHtml">
<span style="font-size: 18px">I always love (G)-IDLE music concept. <br>
This RTX upscale make MV even better than ever<br>
Enjoy.<br>
<br>
</span>
<div class="bbCodeBlock bbCodeVfcHH HiddenContent">
<div class="attribution type">Hidden Content:</div>
<blockquote>You must either reply or click 'Like' to see the hidden information contained here.</blockquote>
</div><br>
<span style="font-size: 18px">
<div class="bbCodeBlock bbCodeVfcHH HiddenContent">
<div class="attribution type">Hidden Content:</div>
<blockquote>You must reply before you can see the hidden data contained here.</blockquote>
</div></span>
<div class="messageTextEndMarker">&nbsp;</div>
</blockquote>
</article>]]></description>
                <author><![CDATA[ch3v4li3r]]></author>
                </item>

                
                <item>
                <title><![CDATA[【UPSCALED】IU - LILAC [RTX HDR]]]></title>
                <link><![CDATA[https://sharemania.us/threads/iu-lilac-rtx-hdr.249373/]]></link>
                <description><![CDATA[<article>
<blockquote class="messageText SelectQuoteContainer ugc baseHtml">
<span style="font-size: 18px">Beloved solo-singer all across the K-Pop industry. <br>
<br>
Enjoy and oh LILAC<br>
<br>
</span>
<div class="bbCodeBlock bbCodeVfcHH HiddenContent">
<div class="attribution type">Hidden Content:</div>
<blockquote>You must either reply or click 'Like' to see the hidden information contained here.</blockquote>
</div><br>
<span style="font-size: 18px">
<div class="bbCodeBlock bbCodeVfcHH HiddenContent">
<div class="attribution type">Hidden Content:</div>
<blockquote>You must reply before you can see the hidden data contained here.</blockquote>
</div></span>
<div class="messageTextEndMarker">&nbsp;</div>
</blockquote>
</article>]]></description>
                <author><![CDATA[ch3v4li3r]]></author>
                </item>

                
                <item>
                <title><![CDATA[【Apple Music】WEB-RiP - Twin Melody &amp; Emma Muscat - CIAO (1080p)]]></title>
                <link><![CDATA[https://sharemania.us/threads/twin-melody-emma-muscat-ciao-1080p.249375/]]></link>
                <description><![CDATA[<article>
<blockquote class="messageText SelectQuoteContainer ugc baseHtml">
<img src="https://i.postimg.cc/PrGQjQXQ/Twin-Melody-Emma-Muscat-CIAO-mp4.jpg" class="bbCodeImage LbImage" alt="[​IMG]" data-url="https://i.postimg.cc/PrGQjQXQ/Twin-Melody-Emma-Muscat-CIAO-mp4.jpg" style=""><br>
<br>
<div class="bbCodeBlock bbCodeCode">
<div class="type">Code:</div>
<pre>General
Complete name                  : G:\Новая папка\Twin Melody &amp; Emma Muscat - CIAO.mp4
Format                         : MPEG-4
Format profile                 : Base Media
Codec ID                       : isom (isom/iso2/avc1/mp41)
File size                      : 263 MiB
Duration                       : 3 min 32 s
Overall bit rate               : 10.4 Mb/s
Frame rate                     : 25.000 FPS
Movie name                     : CIAO
Performer                      : Twin Melody &amp; Emma Muscat
Genre                          : Pop in Spanish
ContentType                    : Music Video
Recorded date                  : 2022-03-01 08:00:00 UTC
Writing application            : Lavf56.30.100
Copyright                      : ℗ (C) 2022 Sony Music Entertainment España, S.L.

Video
ID                             : 1
Format                         : AVC
Format/Info                    : Advanced Video Codec
Format profile                 : High@L4
Format settings                : CABAC / 5 Ref Frames
Format settings, CABAC         : Yes
Format settings, Reference fra : 5 frames
Format settings, Slice count   : 8 slices per frame
Codec ID                       : avc1
Codec ID/Info                  : Advanced Video Coding
Duration                       : 3 min 32 s
Bit rate                       : 10.1 Mb/s
Width                          : 1 920 pixels
Height                         : 798 pixels
Display aspect ratio           : 2.40:1
Frame rate mode                : Constant
Frame rate                     : 25.000 FPS
Color space                    : YUV
Chroma subsampling             : 4:2:0
Bit depth                      : 8 bits
Scan type                      : Progressive
Bits/(Pixel*Frame)             : 0.264
Stream size                    : 256 MiB (97%)
Color range                    : Limited
Color primaries                : BT.709
Transfer characteristics       : BT.709
Matrix coefficients            : BT.709
Codec configuration box        : avcC

Audio
ID                             : 2
Format                         : AAC LC
Format/Info                    : Advanced Audio Codec Low Complexity
Codec ID                       : mp4a-40-2
Duration                       : 3 min 32 s
Duration_LastFrame             : -20 ms
Bit rate mode                  : Constant
Bit rate                       : 265 kb/s
Channel(s)                     : 2 channels
Channel layout                 : L R
Sampling rate                  : 48.0 kHz
Frame rate                     : 46.875 FPS (1024 SPF)
Compression mode               : Lossy
Stream size                    : 6.70 MiB (3%)
Default                        : Yes
Alternate group                : 1

</pre>
</div>
<div class="bbCodeBlock bbCodeVfcHH HiddenContent">
<div class="attribution type">Hidden Content:</div>
<blockquote>You must either reply or click 'Like' to see the hidden information contained here.</blockquote>
</div>
<div class="messageTextEndMarker">&nbsp;</div>
</blockquote>
</article>]]></description>
                <author><![CDATA[vitalya3]]></author>
                </item>

                
                <item>
                <title><![CDATA[【SD】Deniz Arcak - Eyvallah (2004, TV-Rip, Turkish Rock)]]></title>
                <link><![CDATA[https://sharemania.us/threads/deniz-arcak-eyvallah-2004-tv-rip-turkish-rock.249379/]]></link>
                <description><![CDATA[<article>
<blockquote class="messageText SelectQuoteContainer ugc baseHtml">
Deniz Arcak - Eyvallah (2004, TV-Rip, Turkish Rock)<br>
<br>
<img src="https://images2.imgbox.com/0f/4f/1WxygHU6_o.jpg" class="bbCodeImage LbImage" alt="[​IMG]" data-url="https://images2.imgbox.com/0f/4f/1WxygHU6_o.jpg" style=""> <br>
<br>
<span data-s9e-mediaembed="youtube" style="display:inline-block;width:100%;max-width:640px"><span style="display:block;overflow:hidden;position:relative;padding-bottom:56.25%"><iframe allowfullscreen="" loading="lazy" scrolling="no" style="background:url(https://i.ytimg.com/vi/ZaGhbXX0grI/hqdefault.jpg) 50% 50% / cover;border:0;height:100%;left:0;position:absolute;width:100%" src="https://www.youtube.com/embed/ZaGhbXX0grI"></iframe></span></span><br>
<br>
<div class="bbCodeBlock bbCodeVfcHH HiddenContent">
<div class="attribution type">Hidden Content:</div>
<blockquote>You must reply before you can see the hidden data contained here.</blockquote>
</div>Greets, 3rsin.
<div class="messageTextEndMarker">&nbsp;</div>
</blockquote>
</article>]]></description>
                <author><![CDATA[fritching]]></author>
                </item>

                
                <item>
                <title><![CDATA[【Requests】[REQ AUD] - Keisha White - Dont Care Who Knows (single)]]></title>
                <link><![CDATA[https://sharemania.us/threads/keisha-white-dont-care-who-knows-single.249372/]]></link>
                <description><![CDATA[<article>
<blockquote class="messageText SelectQuoteContainer ugc baseHtml">
Hi friends, I'm after this CD single please for the no rap aka original version? Anyone got it? <br>
<a href="https://www.discogs.com/master/537187-Keisha-White-Dont-Care-Who-Knows" target="_blank" class="externalLink" rel="nofollow">https://www.discogs.com/master/537187-Keisha-White-Dont-Care-Who-Knows</a><br>
<br>
<br>
Thank you <img src="styles/default/xenforo/smilies/big_smile-48.png" class="mceSmilie" alt=":)" title="Smile    :)">
<div class="messageTextEndMarker">&nbsp;</div>
</blockquote>
</article>]]></description>
                <author><![CDATA[FullMoon1]]></author>
                </item>

                </channel></rss>